<mxfile host="app.diagrams.net" agent="Mozilla/5.0 (Macintosh; Intel Mac OS X 10_15_7) AppleWebKit/537.36 (KHTML, like Gecko) Chrome/135.0.0.0 Safari/537.36" version="26.2.8">
  <diagram name="Page-1" id="YyjJ5wpuaYHVmLQLBf9D">
    <mxGraphModel dx="3260" dy="1325" grid="1" gridSize="10" guides="1" tooltips="1" connect="1" arrows="1" fold="1" page="1" pageScale="1" pageWidth="827" pageHeight="1169" math="0" shadow="0">
      <root>
        <mxCell id="0" />
        <mxCell id="1" parent="0" />
        <mxCell id="_c-rlhoLFNbtytBOngH1-48" value="" style="ellipse;shape=cloud;whiteSpace=wrap;html=1;" vertex="1" parent="1">
          <mxGeometry x="30" y="340" width="160" height="100" as="geometry" />
        </mxCell>
        <mxCell id="_c-rlhoLFNbtytBOngH1-1" value="" style="points=[];aspect=fixed;html=1;align=center;shadow=0;dashed=0;fillColor=#FF6A00;strokeColor=none;shape=mxgraph.alibaba_cloud.mongodb;" vertex="1" parent="1">
          <mxGeometry x="335" y="165" width="130" height="130" as="geometry" />
        </mxCell>
        <mxCell id="_c-rlhoLFNbtytBOngH1-4" value="PostgreSQL" style="swimlane;" vertex="1" parent="1">
          <mxGeometry x="679" y="130" width="200" height="200" as="geometry" />
        </mxCell>
        <mxCell id="_c-rlhoLFNbtytBOngH1-3" value="" style="image;aspect=fixed;html=1;points=[];align=center;fontSize=12;image=img/lib/azure2/databases/Azure_Database_PostgreSQL_Server.svg;shadow=0;dashed=0;verticalAlign=middle;fontFamily=Helvetica;fontColor=default;fillColor=#FF6A00;" vertex="1" parent="_c-rlhoLFNbtytBOngH1-4">
          <mxGeometry x="54.079999999999984" y="42.55000000000001" width="91.84" height="122.45" as="geometry" />
        </mxCell>
        <mxCell id="_c-rlhoLFNbtytBOngH1-8" value="&amp;lt;/&amp;gt;" style="rounded=1;arcSize=5;fillColor=#0065FF;strokeColor=none;fontColor=#ffffff;align=center;verticalAlign=middle;whiteSpace=wrap;fontSize=14;fontStyle=1;html=1;sketch=0;" vertex="1" parent="_c-rlhoLFNbtytBOngH1-4">
          <mxGeometry y="170" width="200" height="30" as="geometry" />
        </mxCell>
        <mxCell id="_c-rlhoLFNbtytBOngH1-5" value="MongoDB" style="swimlane;" vertex="1" parent="1">
          <mxGeometry x="300" y="130" width="200" height="200" as="geometry" />
        </mxCell>
        <mxCell id="_c-rlhoLFNbtytBOngH1-9" value="&amp;lt;/&amp;gt;" style="rounded=1;arcSize=5;fillColor=#0065FF;strokeColor=none;fontColor=#ffffff;align=center;verticalAlign=middle;whiteSpace=wrap;fontSize=14;fontStyle=1;html=1;sketch=0;" vertex="1" parent="_c-rlhoLFNbtytBOngH1-5">
          <mxGeometry y="170" width="200" height="30" as="geometry" />
        </mxCell>
        <mxCell id="_c-rlhoLFNbtytBOngH1-16" style="edgeStyle=orthogonalEdgeStyle;rounded=0;orthogonalLoop=1;jettySize=auto;html=1;entryX=0.502;entryY=-0.017;entryDx=0;entryDy=0;entryPerimeter=0;fillColor=#60a917;strokeColor=#2D7600;dashed=1;dashPattern=8 8;" edge="1" parent="1" source="_c-rlhoLFNbtytBOngH1-5" target="_c-rlhoLFNbtytBOngH1-10">
          <mxGeometry relative="1" as="geometry">
            <Array as="points">
              <mxPoint x="275" y="390" />
              <mxPoint x="215" y="390" />
            </Array>
          </mxGeometry>
        </mxCell>
        <mxCell id="_c-rlhoLFNbtytBOngH1-17" value="" style="dashed=0;outlineConnect=0;html=1;align=center;labelPosition=center;verticalLabelPosition=bottom;verticalAlign=top;shape=mxgraph.webicons.linkedin;fillColor=#0095DB;gradientColor=#006391" vertex="1" parent="1">
          <mxGeometry x="-10" y="165" width="102.4" height="102.4" as="geometry" />
        </mxCell>
        <mxCell id="_c-rlhoLFNbtytBOngH1-18" style="edgeStyle=orthogonalEdgeStyle;rounded=0;orthogonalLoop=1;jettySize=auto;html=1;entryX=0.495;entryY=-0.031;entryDx=0;entryDy=0;entryPerimeter=0;dashed=1;dashPattern=8 8;fillColor=#60a917;strokeColor=#2D7600;" edge="1" parent="1" source="_c-rlhoLFNbtytBOngH1-41" target="_c-rlhoLFNbtytBOngH1-10">
          <mxGeometry relative="1" as="geometry">
            <Array as="points">
              <mxPoint x="214" y="390" />
            </Array>
          </mxGeometry>
        </mxCell>
        <mxCell id="_c-rlhoLFNbtytBOngH1-26" value="Rony Levi Website" style="swimlane;whiteSpace=wrap;html=1;fontColor=light-dark(#000000,#FFD966);strokeWidth=7;strokeColor=light-dark(#000000,#FFB366);startSize=47;" vertex="1" parent="1">
          <mxGeometry x="-10" y="490" width="1170" height="507" as="geometry" />
        </mxCell>
        <mxCell id="_c-rlhoLFNbtytBOngH1-10" value="Reviews" style="strokeWidth=1;shadow=0;dashed=0;align=center;html=1;shape=mxgraph.mockup.containers.window;align=left;verticalAlign=top;spacingLeft=8;strokeColor2=#008cff;strokeColor3=#c4c4c4;fontColor=#000000;mainText=;fontSize=17;labelBackgroundColor=none;whiteSpace=wrap;fillColor=#e3c800;strokeColor=#B09500;" vertex="1" parent="_c-rlhoLFNbtytBOngH1-26">
          <mxGeometry x="132.5" y="160" width="185" height="125" as="geometry" />
        </mxCell>
        <mxCell id="_c-rlhoLFNbtytBOngH1-11" value="Skills" style="strokeWidth=1;shadow=0;dashed=0;align=center;html=1;shape=mxgraph.mockup.containers.window;align=left;verticalAlign=top;spacingLeft=8;strokeColor2=#008cff;strokeColor3=#c4c4c4;fontColor=#000000;mainText=;fontSize=17;labelBackgroundColor=none;whiteSpace=wrap;fillColor=#e3c800;strokeColor=#B09500;" vertex="1" parent="_c-rlhoLFNbtytBOngH1-26">
          <mxGeometry x="710" y="160" width="185" height="125" as="geometry" />
        </mxCell>
        <mxCell id="_c-rlhoLFNbtytBOngH1-12" value="Career" style="strokeWidth=1;shadow=0;dashed=0;align=center;html=1;shape=mxgraph.mockup.containers.window;align=left;verticalAlign=top;spacingLeft=8;strokeColor2=#008cff;strokeColor3=#c4c4c4;fontColor=#000000;mainText=;fontSize=17;labelBackgroundColor=none;whiteSpace=wrap;fillColor=#e3c800;strokeColor=#B09500;" vertex="1" parent="_c-rlhoLFNbtytBOngH1-26">
          <mxGeometry x="492.5" y="160" width="185" height="125" as="geometry" />
        </mxCell>
        <mxCell id="_c-rlhoLFNbtytBOngH1-19" value="Projects" style="strokeWidth=1;shadow=0;dashed=0;align=center;html=1;shape=mxgraph.mockup.containers.window;align=left;verticalAlign=top;spacingLeft=8;strokeColor2=#008cff;strokeColor3=#c4c4c4;fontColor=#000000;mainText=;fontSize=17;labelBackgroundColor=none;whiteSpace=wrap;fillColor=#e3c800;strokeColor=#B09500;" vertex="1" parent="_c-rlhoLFNbtytBOngH1-26">
          <mxGeometry x="920" y="160" width="185" height="125" as="geometry" />
        </mxCell>
        <mxCell id="_c-rlhoLFNbtytBOngH1-37" value="&lt;div&gt;&lt;div&gt;Company name&lt;/div&gt;&lt;/div&gt;&lt;div&gt;Start Date&lt;/div&gt;&lt;div&gt;End Date&lt;/div&gt;&lt;div&gt;Description&lt;/div&gt;" style="text;html=1;align=left;verticalAlign=middle;whiteSpace=wrap;rounded=0;" vertex="1" parent="_c-rlhoLFNbtytBOngH1-26">
          <mxGeometry x="500" y="209" width="110" height="27" as="geometry" />
        </mxCell>
        <mxCell id="_c-rlhoLFNbtytBOngH1-38" value="&lt;div&gt;&lt;div&gt;Skill Name&lt;/div&gt;&lt;/div&gt;&lt;div&gt;Skill Level&lt;/div&gt;" style="text;html=1;align=left;verticalAlign=middle;whiteSpace=wrap;rounded=0;" vertex="1" parent="_c-rlhoLFNbtytBOngH1-26">
          <mxGeometry x="720" y="200" width="110" height="27" as="geometry" />
        </mxCell>
        <mxCell id="_c-rlhoLFNbtytBOngH1-39" value="&lt;div&gt;&lt;div&gt;Project Name&lt;/div&gt;&lt;/div&gt;&lt;div&gt;GitHub URL&lt;/div&gt;&lt;div&gt;Image&lt;/div&gt;" style="text;html=1;align=left;verticalAlign=middle;whiteSpace=wrap;rounded=0;fillColor=none;fontColor=#000000;strokeColor=none;" vertex="1" parent="_c-rlhoLFNbtytBOngH1-26">
          <mxGeometry x="930" y="200" width="110" height="27" as="geometry" />
        </mxCell>
        <mxCell id="_c-rlhoLFNbtytBOngH1-40" value="&lt;div&gt;&lt;div&gt;Review ID&lt;/div&gt;&lt;/div&gt;&lt;div&gt;Review&lt;/div&gt;&lt;div&gt;Date&lt;/div&gt;" style="text;html=1;align=left;verticalAlign=middle;whiteSpace=wrap;rounded=0;" vertex="1" parent="_c-rlhoLFNbtytBOngH1-26">
          <mxGeometry x="140" y="209" width="110" height="27" as="geometry" />
        </mxCell>
        <mxCell id="_c-rlhoLFNbtytBOngH1-44" value="" style="outlineConnect=0;dashed=0;verticalLabelPosition=bottom;verticalAlign=top;align=center;html=1;shape=mxgraph.aws3.android;fillColor=#205E00;gradientColor=none;" vertex="1" parent="_c-rlhoLFNbtytBOngH1-26">
          <mxGeometry x="1070" y="380" width="73.5" height="84" as="geometry" />
        </mxCell>
        <mxCell id="_c-rlhoLFNbtytBOngH1-45" value="React.JS" style="text;html=1;align=center;verticalAlign=middle;whiteSpace=wrap;rounded=0;" vertex="1" parent="_c-rlhoLFNbtytBOngH1-26">
          <mxGeometry x="1083.5" y="470" width="60" height="30" as="geometry" />
        </mxCell>
        <mxCell id="_c-rlhoLFNbtytBOngH1-28" style="edgeStyle=orthogonalEdgeStyle;rounded=0;orthogonalLoop=1;jettySize=auto;html=1;entryX=0.437;entryY=-0.031;entryDx=0;entryDy=0;entryPerimeter=0;dashed=1;dashPattern=12 12;fillColor=#1ba1e2;strokeColor=#006EAF;" edge="1" parent="1" target="_c-rlhoLFNbtytBOngH1-11">
          <mxGeometry relative="1" as="geometry">
            <mxPoint x="780" y="350" as="sourcePoint" />
          </mxGeometry>
        </mxCell>
        <mxCell id="_c-rlhoLFNbtytBOngH1-30" style="edgeStyle=orthogonalEdgeStyle;rounded=0;orthogonalLoop=1;jettySize=auto;html=1;dashed=1;dashPattern=8 8;fillColor=#1ba1e2;strokeColor=#006EAF;" edge="1" parent="1">
          <mxGeometry relative="1" as="geometry">
            <mxPoint x="780.92" y="380" as="sourcePoint" />
            <mxPoint x="560" y="690" as="targetPoint" />
            <Array as="points">
              <mxPoint x="780.92" y="590" />
              <mxPoint x="559.9200000000001" y="590" />
            </Array>
          </mxGeometry>
        </mxCell>
        <mxCell id="_c-rlhoLFNbtytBOngH1-31" style="edgeStyle=orthogonalEdgeStyle;rounded=0;orthogonalLoop=1;jettySize=auto;html=1;entryX=0.477;entryY=-0.017;entryDx=0;entryDy=0;entryPerimeter=0;dashed=1;dashPattern=8 8;fillColor=#1ba1e2;strokeColor=#006EAF;" edge="1" parent="1" source="_c-rlhoLFNbtytBOngH1-4" target="_c-rlhoLFNbtytBOngH1-19">
          <mxGeometry relative="1" as="geometry">
            <Array as="points">
              <mxPoint x="780" y="590" />
              <mxPoint x="998" y="590" />
            </Array>
          </mxGeometry>
        </mxCell>
        <mxCell id="_c-rlhoLFNbtytBOngH1-43" style="edgeStyle=orthogonalEdgeStyle;rounded=0;orthogonalLoop=1;jettySize=auto;html=1;dashed=1;dashPattern=8 8;fillColor=#6d8764;strokeColor=#3A5431;" edge="1" parent="1" source="_c-rlhoLFNbtytBOngH1-41" target="_c-rlhoLFNbtytBOngH1-17">
          <mxGeometry relative="1" as="geometry">
            <Array as="points">
              <mxPoint x="41" y="390" />
            </Array>
          </mxGeometry>
        </mxCell>
        <mxCell id="_c-rlhoLFNbtytBOngH1-41" value="" style="sketch=0;outlineConnect=0;fontColor=#232F3E;gradientColor=none;fillColor=#DD344C;strokeColor=none;dashed=0;verticalLabelPosition=bottom;verticalAlign=top;align=center;html=1;fontSize=12;fontStyle=0;aspect=fixed;pointerEvents=1;shape=mxgraph.aws4.addon;" vertex="1" parent="1">
          <mxGeometry x="71" y="370" width="78" height="40" as="geometry" />
        </mxCell>
      </root>
    </mxGraphModel>
  </diagram>
</mxfile>
